<svg width="33" height="33" viewBox="0 0 33 33" fill="none" xmlns="http://www.w3.org/2000/svg">
<path fill-rule="evenodd" clip-rule="evenodd" d="M16.9961 32.5098C25.8326 32.5098 32.9961 25.3463 32.9961 16.5098C32.9961 7.67321 25.8326 0.509766 16.9961 0.509766C8.15954 0.509766 0.996094 7.67321 0.996094 16.5098C0.996094 25.3463 8.15954 32.5098 16.9961 32.5098ZM13.6977 8.55777C14.5513 8.51937 14.8233 8.50977 16.9961 8.50977C19.1689 8.50977 19.4409 8.51937 20.2945 8.55777C21.1457 8.59697 21.7273 8.73217 22.2361 8.92977C22.7701 9.13044 23.2539 9.44523 23.6537 9.85217C24.0606 10.252 24.3754 10.7358 24.5761 11.2698C24.7737 11.7786 24.9089 12.3602 24.9481 13.2114C24.9865 14.065 24.9961 14.337 24.9961 16.5098C24.9961 18.6826 24.9865 18.9546 24.9481 19.8082C24.9089 20.6594 24.7737 21.241 24.5761 21.7498C24.3754 22.2838 24.0606 22.7675 23.6537 23.1674C23.2539 23.5743 22.7701 23.8891 22.2361 24.0898C21.7273 24.2874 21.1457 24.4226 20.2945 24.4618C19.4409 24.5002 19.1689 24.5098 16.9961 24.5098C14.8233 24.5098 14.5513 24.5002 13.6977 24.4618C12.8465 24.4226 12.2649 24.2874 11.7561 24.0898C11.2221 23.889 10.7383 23.5743 10.3385 23.1674C9.9316 22.7675 9.61682 22.2838 9.41609 21.7498C9.21849 21.241 9.08329 20.6594 9.04409 19.8082C9.00489 18.9546 8.99609 18.6826 8.99609 16.5098C8.99609 14.337 9.00489 14.065 9.04409 13.2114C9.08329 12.3602 9.21849 11.7786 9.41609 11.2698C9.61679 10.7358 9.93158 10.252 10.3385 9.85217C10.7383 9.44523 11.2221 9.13044 11.7561 8.92977C12.2649 8.73217 12.8465 8.59697 13.6977 8.55777ZM20.2281 9.99777C19.3849 9.95937 19.1321 9.95137 16.9961 9.95137C14.8593 9.95137 14.6073 9.95937 13.7633 9.99777C12.9833 10.033 12.5601 10.1634 12.2777 10.273C11.9049 10.4186 11.6377 10.5914 11.3577 10.8714C11.0785 11.1514 10.9049 11.4186 10.7593 11.7914C10.6497 12.0738 10.5201 12.497 10.4841 13.2778C10.4457 14.121 10.4377 14.3738 10.4377 16.5098C10.4377 18.6466 10.4457 18.8986 10.4841 19.7426C10.5193 20.5226 10.6497 20.9458 10.7593 21.2282C10.8875 21.5757 11.092 21.8901 11.3577 22.1482C11.6158 22.4139 11.9302 22.6184 12.2777 22.7466C12.5601 22.8554 12.9833 22.9858 13.7641 23.0218C14.6065 23.0602 14.8601 23.0682 16.9961 23.0682C19.1329 23.0682 19.3857 23.0602 20.2289 23.0218C21.0089 22.9866 21.4321 22.8554 21.7145 22.7466C22.0873 22.601 22.3545 22.4282 22.6345 22.1482C22.9002 21.89 23.1046 21.5757 23.2329 21.2282C23.3417 20.9458 23.4721 20.5226 23.5081 19.7418C23.5465 18.8986 23.5545 18.6458 23.5545 16.5098C23.5545 14.373 23.5465 14.121 23.5081 13.277C23.4729 12.497 23.3417 12.0738 23.2329 11.7914C23.0873 11.4186 22.9145 11.1514 22.6345 10.8714C22.3545 10.5922 22.0873 10.4186 21.7145 10.273C21.4321 10.1634 21.0089 10.0338 20.2281 9.99777ZM15.1107 18.3952C15.6107 18.8952 16.2889 19.1762 16.9961 19.1762C17.7033 19.1762 18.3815 18.8952 18.8815 18.3952C19.3816 17.8951 19.6625 17.2169 19.6625 16.5098C19.6625 15.8026 19.3816 15.1244 18.8815 14.6243C18.3815 14.1243 17.7033 13.8434 16.9961 13.8434C16.2889 13.8434 15.6107 14.1243 15.1107 14.6243C14.6106 15.1244 14.3297 15.8026 14.3297 16.5098C14.3297 17.2169 14.6106 17.8951 15.1107 18.3952ZM15.424 12.7145C15.9224 12.508 16.4566 12.4018 16.9961 12.4018C18.0856 12.4018 19.1305 12.8346 19.9009 13.605C20.6713 14.3754 21.1041 15.4203 21.1041 16.5098C21.1041 17.5993 20.6713 18.6442 19.9009 19.4146C19.1305 20.185 18.0856 20.6178 16.9961 20.6178C16.4566 20.6178 15.9224 20.5115 15.424 20.3051C14.9256 20.0986 14.4728 19.796 14.0913 19.4146C13.7098 19.0331 13.4072 18.5802 13.2008 18.0818C12.9944 17.5834 12.8881 17.0492 12.8881 16.5098C12.8881 15.9703 12.9944 15.4361 13.2008 14.9377C13.4072 14.4393 13.7098 13.9864 14.0913 13.605C14.4728 13.2235 14.9256 12.9209 15.424 12.7145ZM22.1534 12.6067C22.2017 12.4903 22.2265 12.3654 22.2265 12.2394C22.2265 11.9848 22.1254 11.7406 21.9453 11.5605C21.7653 11.3805 21.5211 11.2794 21.2665 11.2794C21.0119 11.2794 20.7677 11.3805 20.5877 11.5605C20.4076 11.7406 20.3065 11.9848 20.3065 12.2394C20.3065 12.3654 20.3313 12.4903 20.3796 12.6067C20.4278 12.7232 20.4985 12.829 20.5877 12.9182C20.6768 13.0073 20.7826 13.078 20.8991 13.1263C21.0156 13.1745 21.1404 13.1994 21.2665 13.1994C21.3926 13.1994 21.5174 13.1745 21.6339 13.1263C21.7503 13.078 21.8562 13.0073 21.9453 12.9182C22.0345 12.829 22.1052 12.7232 22.1534 12.6067Z" fill="white"/>
</svg>
