<svg width="33" height="33" viewBox="0 0 33 33" fill="none" xmlns="http://www.w3.org/2000/svg">
<path d="M16.9961 0.509766C8.15943 0.509766 0.996094 7.6731 0.996094 16.5098C0.996094 25.3464 8.15943 32.5098 16.9961 32.5098C25.8328 32.5098 32.9961 25.3464 32.9961 16.5098C32.9961 7.6731 25.8328 0.509766 16.9961 0.509766ZM13.0794 23.1414H9.83943V12.7148H13.0794V23.1414ZM11.4394 11.4348C10.4161 11.4348 9.75443 10.7098 9.75443 9.8131C9.75443 8.8981 10.4361 8.19477 11.4811 8.19477C12.5261 8.19477 13.1661 8.8981 13.1861 9.8131C13.1861 10.7098 12.5261 11.4348 11.4394 11.4348ZM24.9128 23.1414H21.6728V17.3631C21.6728 16.0181 21.2028 15.1048 20.0311 15.1048C19.1361 15.1048 18.6044 15.7231 18.3694 16.3181C18.2828 16.5298 18.2611 16.8298 18.2611 17.1281V23.1398H15.0194V16.0398C15.0194 14.7381 14.9778 13.6498 14.9344 12.7131H17.7494L17.8978 14.1614H17.9628C18.3894 13.4814 19.4344 12.4781 21.1828 12.4781C23.3144 12.4781 24.9128 13.9064 24.9128 16.9764V23.1414Z" fill="white"/>
</svg>
