<svg width="273" height="86" viewBox="0 0 273 86" fill="none" xmlns="http://www.w3.org/2000/svg">
<path d="M51.1158 61.8064C53.519 58.6036 56.4662 55.4937 59.7763 52.6623C60.3657 52.1517 60.9552 51.6876 61.5446 51.2698L64.5826 49.0882C64.8093 48.9026 64.7186 48.5312 64.4012 48.5312H60.139C56.2395 48.5312 52.4761 50.4343 50.3903 53.7763C49.166 55.6794 48.5312 57.9074 48.5312 60.2282V64.4057C48.5312 64.6842 48.894 64.8234 49.0754 64.5914L51.1158 61.8064Z" fill="white"/>
<path d="M61.082 54.4362C58.081 57.0196 55.2618 59.8336 52.761 62.9245C49.9873 66.3383 48.4868 70.6285 48.5323 75.1034V76.2567C48.5323 77.4561 50.1237 77.8713 50.7148 76.8103L51.2605 75.7953C54.8071 69.3368 59.3542 63.7087 64.9015 59.0494C68.4937 56.0047 72.4496 53.4213 76.6783 51.3914L77.906 50.7917C79.0428 50.2381 78.6335 48.5312 77.4058 48.5312H74.905C70.9036 48.5312 66.9932 49.8691 63.8557 52.2218C62.8554 53.0061 61.946 53.6981 61.082 54.4362Z" fill="white"/>
<path d="M83.4634 50.942C77.3103 53.3945 71.4886 56.7726 66.2822 61.0299C58.6618 67.2308 52.7454 74.7736 48.675 83.3807C48.2017 84.3525 48.959 85.5093 50.0476 85.5093C52.6981 85.5093 55.112 84.1211 56.3426 81.9462C59.8925 75.7453 64.5309 70.2849 70.1633 65.7037C73.3345 63.1586 76.7897 60.8911 80.4815 58.9475C82.9901 57.6518 84.7887 55.3844 85.4513 52.6541C85.7826 51.4973 84.5993 50.5255 83.4634 50.942Z" fill="white"/>
<path fill-rule="evenodd" clip-rule="evenodd" d="M79.7305 75.1104C79.7305 77.6621 77.6602 79.7324 75.1084 79.7324C72.5566 79.7324 70.4863 77.6621 70.4863 75.1104C70.4863 72.5586 72.5566 70.4883 75.1084 70.4883C77.6602 70.4883 79.7305 72.5586 79.7305 75.1104Z" fill="white"/>
<path d="M34.3916 61.8064C31.9884 58.6036 29.0411 55.4937 25.7311 52.6623C25.1416 52.1517 24.5522 51.6876 23.9627 51.2698L20.9248 49.0882C20.6981 48.9026 20.7887 48.5312 21.1061 48.5312H25.3684C29.2678 48.5312 33.0313 50.4343 35.1171 53.7763C36.3413 55.6794 36.9761 57.9074 36.9761 60.2282V64.4057C36.9761 64.6842 36.6134 64.8234 36.432 64.5914L34.3916 61.8064Z" fill="white"/>
<path d="M23.9429 54.4362C27.0593 57.0196 29.9869 59.8336 32.584 62.9245C35.4643 66.3383 37.0226 70.6285 36.9753 75.1034V76.2567C36.9753 77.4561 35.3227 77.8713 34.7088 76.8103L34.1422 75.7953C30.4591 69.3368 25.7372 63.7087 19.9765 59.0494C16.2462 56.0047 12.1381 53.4213 7.74673 51.3914L6.47182 50.7917C5.29134 50.2381 5.71631 48.5312 6.99123 48.5312H9.58828C13.7436 48.5312 17.8044 49.8691 21.0625 52.2218C22.1013 53.0061 23.0457 53.6981 23.9429 54.4362Z" fill="white"/>
<path d="M1.98061 50.94C7.94138 53.3926 13.5812 56.7707 18.6249 61.028C26.0071 67.2288 31.7386 74.7716 35.6819 83.3787C36.1404 84.3505 35.4068 85.5074 34.3522 85.5074C31.7845 85.5074 29.446 84.1191 28.2539 81.9442C24.8149 75.7434 20.3214 70.2829 14.865 65.7017C11.793 63.1566 8.44576 60.8891 4.8693 58.9456C2.43914 57.6499 0.696756 55.3824 0.0548274 52.6522C-0.266137 51.4953 0.880165 50.5235 1.98061 50.94Z" fill="white"/>
<path fill-rule="evenodd" clip-rule="evenodd" d="M5.77734 75.1104C5.77734 77.6621 7.84765 79.7324 10.3994 79.7324C12.9512 79.7324 15.0215 77.6621 15.0215 75.1104C15.0215 72.5586 12.9512 70.4883 10.3994 70.4883C7.7995 70.4883 5.77734 72.5586 5.77734 75.1104Z" fill="white"/>
<path d="M34.3916 23.6628C31.9884 26.8747 29.0411 29.9936 25.7311 32.8332C25.1416 33.3452 24.5522 33.8107 23.9627 34.2297L20.9248 36.4175C20.6981 36.6037 20.7887 36.9761 21.1061 36.9761H25.3684C29.2678 36.9761 33.0313 35.0676 35.1624 31.716C36.3413 29.8074 36.9761 27.6195 36.9761 25.292V21.1025C36.9761 20.8232 36.6134 20.6836 36.432 20.9163L34.3916 23.6628Z" fill="white"/>
<path d="M24.4073 31.1097C27.4584 28.5222 30.2363 25.6574 32.741 22.6078C35.5189 19.1886 37.0216 14.8914 36.9761 10.4094V9.25429C36.9761 8.05293 35.3822 7.63708 34.7902 8.69982L34.2438 9.71635C30.6917 16.1852 26.1378 21.8223 20.582 26.4891C16.9844 29.4925 13.0225 32.08 8.83292 34.1131L7.60336 34.7138C6.46488 35.2682 6.87474 36.9778 8.10429 36.9778H10.6089C14.6164 36.9778 18.5328 35.6379 21.675 33.2814C22.6313 32.5421 23.5421 31.8028 24.4073 31.1097Z" fill="white"/>
<path d="M1.98061 34.5674C7.94138 32.1148 13.5812 28.7367 18.6249 24.4794C26.0071 18.2323 31.7386 10.7358 35.6819 2.12865C36.1404 1.1106 35.4068 0 34.3522 0C31.7845 0 29.446 1.38825 28.2539 3.56317C24.8149 9.76401 20.3214 15.2245 14.865 19.8057C11.793 22.3508 8.44576 24.6183 4.8693 26.5618C2.43914 27.8575 0.696756 30.125 0.0548274 32.8552C-0.266137 34.0121 0.880165 34.9838 1.98061 34.5674Z" fill="white"/>
<path fill-rule="evenodd" clip-rule="evenodd" d="M5.77734 10.3994C5.77734 7.84765 7.84765 5.77734 10.3994 5.77734C12.9512 5.77734 15.0215 7.84765 15.0215 10.3994C15.0215 12.9512 12.9512 15.0215 10.3994 15.0215C7.7995 15.0215 5.77734 12.9512 5.77734 10.3994Z" fill="white"/>
<path d="M51.1158 23.701C53.519 26.9037 56.4662 30.0136 59.7763 32.845C60.3657 33.3556 60.9552 33.8198 61.5446 34.2375L64.5826 36.4191C64.8093 36.6048 64.7186 36.9761 64.4012 36.9761H60.139C56.2395 36.9761 52.4761 35.073 50.3903 31.731C49.166 29.828 48.5312 27.6 48.5312 25.2792V21.1017C48.5312 20.8232 48.894 20.6839 49.0754 20.916L51.1158 23.701Z" fill="white"/>
<path d="M61.082 31.0729C58.081 28.4895 55.2618 25.6755 52.761 22.5846C49.9873 19.1708 48.4868 14.8805 48.5323 10.4057V9.25243C48.5323 8.05299 50.1237 7.6378 50.7148 8.69884L51.2605 9.71375C54.8071 16.1722 59.3542 21.8004 64.9015 26.4597C68.4937 29.5044 72.4496 32.0878 76.6783 34.1176L77.906 34.7174C79.0428 35.271 78.6335 36.9778 77.4058 36.9778H74.905C70.9036 36.9778 66.9932 35.64 63.8557 33.2873C62.8554 32.503 61.946 31.7649 61.082 31.0729Z" fill="white"/>
<path d="M83.4634 34.5674C77.3103 32.1148 71.4886 28.7367 66.2822 24.4794C58.6618 18.2323 52.7454 10.7358 48.675 2.12865C48.2017 1.15687 48.959 0 50.0476 0C52.6981 0 55.112 1.38825 56.3426 3.56317C59.8925 9.76401 64.5309 15.2245 70.1633 19.8057C73.3345 22.3508 76.7897 24.6183 80.4815 26.5618C82.9901 27.8575 84.7887 30.125 85.4513 32.8552C85.7826 34.0121 84.5993 34.9838 83.4634 34.5674Z" fill="white"/>
<path fill-rule="evenodd" clip-rule="evenodd" d="M79.7305 10.3994C79.7305 7.84765 77.6602 5.77734 75.1084 5.77734C72.5566 5.77734 70.4863 7.84765 70.4863 10.3994C70.4863 12.9512 72.5566 15.0215 75.1084 15.0215C77.6602 15.0215 79.7305 12.9512 79.7305 10.3994Z" fill="white"/>
<path d="M136.351 41.0854C135.934 41.1787 135.284 41.3186 134.355 41.4119C133.473 41.5052 132.544 41.5985 131.662 41.5985C130.78 41.5985 129.991 41.5518 129.341 41.4119C128.691 41.272 128.087 41.0388 127.623 40.6656C127.159 40.3391 126.834 39.8261 126.602 39.2197C126.37 38.6134 126.277 37.7738 126.277 36.7943V27.7924H115.227V41.0854C114.809 41.1787 114.159 41.3186 113.231 41.4119C112.349 41.5052 111.42 41.5985 110.538 41.5985C109.656 41.5985 108.867 41.5518 108.217 41.4119C107.567 41.272 106.963 41.0388 106.499 40.6656C106.034 40.3391 105.709 39.8261 105.477 39.2197C105.245 38.6134 105.152 37.7738 105.152 36.7943V6.29041C105.57 6.19712 106.267 6.10384 107.149 5.96391C108.077 5.82399 108.959 5.77734 109.795 5.77734C110.677 5.77734 111.466 5.82399 112.116 5.96391C112.766 6.10384 113.37 6.33705 113.834 6.71019C114.298 7.03668 114.623 7.54974 114.856 8.15609C115.088 8.76244 115.181 9.60199 115.181 10.5815V19.8166H126.23V6.29041C126.648 6.19712 127.345 6.10384 128.227 5.96391C129.155 5.82399 130.037 5.77734 130.873 5.77734C131.755 5.77734 132.544 5.82399 133.194 5.96391C133.844 6.10384 134.448 6.33705 134.912 6.71019C135.376 7.03668 135.701 7.54974 135.934 8.15609C136.166 8.76244 136.259 9.60199 136.259 10.5815V41.0854H136.351Z" fill="white"/>
<path d="M157.917 42.7545C155.675 42.7545 153.615 42.4264 151.693 41.8171C149.771 41.1609 148.124 40.2235 146.705 38.958C145.287 37.6925 144.188 36.0521 143.365 34.1304C142.541 32.2088 142.129 29.9121 142.129 27.3343C142.129 24.7565 142.541 22.6005 143.365 20.7257C144.188 18.8977 145.241 17.3979 146.568 16.1793C147.895 15.0076 149.405 14.117 151.098 13.5546C152.792 12.9922 154.531 12.7109 156.315 12.7109C158.329 12.7109 160.16 13.039 161.807 13.6483C163.455 14.2576 164.873 15.1013 166.063 16.2262C167.253 17.3042 168.168 18.6165 168.855 20.1164C169.495 21.6162 169.861 23.2566 169.861 25.0377C169.861 26.35 169.495 27.3812 168.763 28.0373C168.031 28.7404 167.024 29.1622 165.743 29.3966L151.739 31.5526C152.151 32.8181 153.021 33.8023 154.302 34.4116C155.583 35.0678 157.048 35.349 158.741 35.349C160.297 35.349 161.761 35.1616 163.134 34.7397C164.507 34.3179 165.651 33.8492 166.521 33.3336C167.116 33.7086 167.619 34.271 168.031 34.9741C168.443 35.6771 168.672 36.427 168.672 37.177C168.672 38.9111 167.894 40.2235 166.292 41.0671C165.102 41.7233 163.729 42.192 162.219 42.4264C160.663 42.6138 159.244 42.7545 157.917 42.7545ZM156.315 19.9289C155.4 19.9289 154.622 20.0695 153.982 20.3976C153.341 20.7257 152.792 21.1006 152.38 21.5693C151.968 22.038 151.648 22.6005 151.465 23.2098C151.236 23.8191 151.144 24.4284 151.098 25.0377L160.8 23.3972C160.709 22.6005 160.251 21.8505 159.565 21.0538C158.787 20.3038 157.734 19.9289 156.315 19.9289Z" fill="white"/>
<path d="M186.178 12.7109C188.257 12.7109 190.106 12.9449 191.816 13.3661C193.527 13.7873 194.959 14.4424 196.161 15.3316C197.363 16.2207 198.287 17.297 198.934 18.6541C199.582 20.0112 199.905 21.5555 199.905 23.3806V36.3901C199.905 37.4196 199.628 38.2152 199.073 38.8703C198.518 39.5255 197.871 40.0402 197.086 40.5082C194.59 42.0057 191.123 42.7545 186.593 42.7545C184.56 42.7545 182.757 42.5673 181.139 42.1929C179.522 41.8185 178.135 41.2102 176.933 40.4614C175.732 39.7127 174.853 38.6831 174.253 37.5132C173.605 36.2965 173.328 34.9394 173.328 33.3483C173.328 30.6809 174.114 28.6218 175.685 27.2179C177.257 25.7672 179.66 24.8781 182.942 24.5505L190.43 23.755V23.3338C190.43 22.2107 189.921 21.4151 188.951 20.9472C187.98 20.4792 186.593 20.2452 184.745 20.2452C183.312 20.2452 181.879 20.3856 180.492 20.7132C179.106 21.0408 177.858 21.4151 176.748 21.8831C176.24 21.5555 175.824 20.994 175.501 20.292C175.177 19.5901 174.992 18.8413 174.992 18.0458C174.992 17.063 175.223 16.2207 175.685 15.6591C176.148 15.0508 176.887 14.536 177.904 14.1148C179.013 13.6937 180.307 13.3661 181.833 13.1789C183.404 12.8045 184.837 12.7109 186.178 12.7109ZM186.64 35.501C187.287 35.501 188.026 35.4542 188.766 35.3138C189.552 35.1734 190.153 34.9862 190.522 34.7522V30.1193L186.409 30.4469C185.346 30.5405 184.467 30.7745 183.774 31.1489C183.081 31.5232 182.757 32.1316 182.757 32.8803C182.757 33.6759 183.034 34.2842 183.635 34.7522C184.19 35.267 185.207 35.501 186.64 35.501Z" fill="white"/>
<path d="M216.082 41.091C215.639 41.183 214.949 41.275 214.111 41.413C213.224 41.551 212.336 41.597 211.449 41.597C210.562 41.597 209.724 41.551 209.034 41.413C208.344 41.321 207.703 41.091 207.211 40.723C206.718 40.4011 206.323 39.8951 206.077 39.3431C205.83 38.7451 205.683 37.9632 205.683 37.0432V3.97082C206.126 3.87882 206.767 3.78683 207.654 3.64883C208.541 3.51084 209.428 3.46484 210.316 3.46484C211.203 3.46484 211.991 3.51084 212.731 3.64883C213.421 3.74083 214.062 3.97082 214.554 4.3388C215.047 4.66079 215.442 5.16676 215.688 5.71873C215.934 6.31671 216.082 7.09867 216.082 8.01862V41.091Z" fill="white"/>
<path d="M231.742 32.365C231.742 33.3764 232.073 34.0661 232.688 34.4798C233.35 34.8936 234.248 35.1235 235.43 35.1235C235.997 35.1235 236.612 35.0775 237.227 34.9856C237.842 34.8936 238.409 34.7557 238.882 34.6178C239.213 35.0315 239.544 35.4913 239.78 35.997C240.017 36.5028 240.159 37.1464 240.159 37.8361C240.159 39.2613 239.591 40.4567 238.504 41.3762C237.369 42.2957 235.43 42.7554 232.593 42.7554C229.141 42.7554 226.493 41.9739 224.649 40.4567C222.805 38.9395 221.859 36.4568 221.859 33.0546V8.64155C222.285 8.5496 222.9 8.41167 223.703 8.27375C224.507 8.13582 225.358 8.08984 226.257 8.08984C227.959 8.08984 229.33 8.3657 230.276 8.96338C231.222 9.56106 231.695 10.8024 231.695 12.6874V16.3195H239.355C239.591 16.7333 239.828 17.239 240.017 17.8826C240.253 18.5263 240.348 19.2159 240.348 19.9515C240.348 21.2848 240.064 22.2503 239.449 22.848C238.835 23.4457 238.031 23.7215 237.038 23.7215H231.695V32.365H231.742Z" fill="white"/>
<path d="M272.656 41.091C272.282 41.183 271.676 41.321 270.835 41.413C269.995 41.505 269.154 41.597 268.267 41.597C267.427 41.597 266.633 41.551 265.98 41.413C265.326 41.275 264.719 41.091 264.252 40.723C263.785 40.4011 263.412 39.8951 263.178 39.3431C262.945 38.7451 262.805 37.9632 262.805 37.0432V24.3478C262.805 22.7839 262.431 21.68 261.638 21.082C260.844 20.438 259.864 20.162 258.696 20.162C257.903 20.162 257.202 20.254 256.502 20.438C255.802 20.622 255.241 20.852 254.821 21.128V41.091C254.448 41.183 253.841 41.321 253 41.413C252.16 41.505 251.32 41.597 250.433 41.597C249.592 41.597 248.799 41.551 248.145 41.413C247.491 41.321 246.884 41.091 246.418 40.723C245.951 40.4011 245.577 39.8951 245.344 39.3431C245.11 38.7451 244.97 37.9632 244.97 37.0432V3.97082C245.39 3.87882 246.044 3.78683 246.838 3.64883C247.678 3.51084 248.518 3.46484 249.359 3.46484C250.199 3.46484 250.993 3.51084 251.647 3.64883C252.3 3.74083 252.907 3.97082 253.374 4.3388C253.841 4.66079 254.214 5.16676 254.448 5.71873C254.681 6.31671 254.821 7.09867 254.821 8.01862V13.5844C255.335 13.4004 256.082 13.1704 257.109 12.9404C258.136 12.7104 259.257 12.5724 260.517 12.5724C264.346 12.5724 267.334 13.4924 269.481 15.3783C271.629 17.2642 272.703 20.07 272.703 23.7959V41.091H272.656Z" fill="white"/>
<path d="M113.02 70.6612C111.348 70.101 109.815 69.494 108.421 68.8871C107.028 68.2801 105.866 67.5798 104.844 66.6928C103.822 65.8524 103.079 64.8252 102.522 63.6581C101.964 62.4909 101.686 61.0435 101.686 59.3628C101.686 56.0947 102.94 53.4801 105.448 51.4726C107.957 49.5117 111.487 48.5312 116.04 48.5312C117.712 48.5312 119.245 48.6246 120.638 48.8581C122.078 49.0915 123.286 49.465 124.308 49.9319C125.33 50.3988 126.12 51.0524 126.677 51.7994C127.235 52.5464 127.56 53.4335 127.56 54.4139C127.56 55.441 127.328 56.2814 126.863 56.9817C126.399 57.682 125.841 58.289 125.191 58.8025C124.355 58.2423 123.193 57.7754 121.8 57.4019C120.36 56.9817 118.827 56.795 117.154 56.795C115.436 56.795 114.181 57.0284 113.345 57.542C112.556 58.0088 112.137 58.6158 112.137 59.3628C112.137 59.923 112.37 60.4366 112.881 60.7634C113.392 61.1369 114.135 61.4637 115.11 61.7905L118.176 62.771C121.8 63.9382 124.54 65.3855 126.491 67.2063C128.443 68.9805 129.418 71.4549 129.418 74.5363C129.418 77.8044 128.117 80.4656 125.562 82.4732C123.007 84.4808 119.198 85.5079 114.228 85.5079C112.463 85.5079 110.837 85.3678 109.304 85.0877C107.771 84.8076 106.47 84.3874 105.309 83.8271C104.194 83.2669 103.311 82.5666 102.661 81.7262C102.011 80.8858 101.732 79.9521 101.732 78.8782C101.732 77.7577 102.057 76.824 102.708 76.0303C103.358 75.2366 104.055 74.6297 104.844 74.2095C105.913 75.0498 107.213 75.7969 108.793 76.4038C110.326 77.0107 112.045 77.3375 113.903 77.3375C115.761 77.3375 117.108 77.0574 117.898 76.4505C118.687 75.8902 119.059 75.1899 119.059 74.4429C119.059 73.6492 118.734 73.089 118.13 72.6688C117.526 72.2486 116.643 71.8751 115.529 71.5016L113.02 70.6612Z" fill="white"/>
<path d="M149.331 85.5084C146.995 85.5084 144.85 85.1803 142.848 84.571C140.846 83.9148 139.13 82.9774 137.652 81.7119C136.174 80.4464 135.03 78.806 134.172 76.8843C133.314 74.9627 132.885 72.666 132.885 70.0882C132.885 67.5104 133.314 65.3544 134.172 63.4796C135.03 61.6516 136.126 60.1518 137.509 58.9332C138.891 57.7615 140.464 56.8709 142.228 56.3085C143.992 55.7461 145.803 55.4648 147.662 55.4648C149.76 55.4648 151.667 55.7929 153.383 56.4022C155.099 57.0115 156.577 57.8552 157.816 58.9801C159.056 60.0581 160.009 61.3704 160.724 62.8703C161.391 64.3701 161.773 66.0105 161.773 67.7916C161.773 69.1039 161.391 70.1351 160.629 70.7913C159.866 71.4474 158.817 71.9161 157.482 72.1505L142.895 74.3065C143.324 75.572 144.23 76.5562 145.565 77.1655C146.9 77.8217 148.425 78.1029 150.189 78.1029C151.81 78.1029 153.335 77.9155 154.765 77.4936C156.195 77.0718 157.387 76.6031 158.293 76.0875C158.913 76.4625 159.437 77.0249 159.866 77.728C160.295 78.431 160.533 79.1809 160.533 79.9309C160.533 81.665 159.723 82.9774 158.055 83.8211C156.815 84.4772 155.385 84.9459 153.812 85.1803C152.191 85.4146 150.713 85.5084 149.331 85.5084ZM147.662 62.6828C146.709 62.6828 145.899 62.8234 145.231 63.1515C144.564 63.4796 143.992 63.8545 143.563 64.3232C143.134 64.7919 142.8 65.3544 142.609 65.9637C142.371 66.573 142.276 67.1823 142.228 67.7916L152.334 66.1512C152.239 65.3544 151.762 64.6044 151.047 63.8077C150.237 63.0577 149.14 62.6828 147.662 62.6828Z" fill="white"/>
<path d="M176.193 84.9838C175.822 85.0792 175.218 85.2222 174.382 85.3176C173.546 85.413 172.71 85.5084 171.828 85.5084C170.992 85.5084 170.203 85.4607 169.552 85.3176C168.902 85.2222 168.299 84.9838 167.834 84.6023C167.37 84.2685 166.998 83.7439 166.766 83.1716C166.534 82.5517 166.395 81.741 166.395 80.7872V63.0473C166.395 62.1412 166.58 61.3782 166.905 60.7105C167.23 60.0429 167.695 59.4706 168.299 58.9461C168.902 58.4215 169.692 57.9923 170.574 57.5631C171.456 57.1339 172.432 56.8001 173.5 56.4663C174.521 56.1325 175.59 55.894 176.704 55.751C177.819 55.5602 178.933 55.4648 180.048 55.4648C181.905 55.4648 183.345 55.8463 184.413 56.5617C185.481 57.277 186.038 58.4692 186.038 60.1383C186.038 60.7105 185.945 61.2351 185.806 61.7597C185.667 62.2842 185.481 62.7611 185.249 63.1903C184.459 63.1903 183.624 63.238 182.788 63.2857C181.952 63.3811 181.116 63.4764 180.326 63.6195C179.537 63.7626 178.747 63.9533 178.051 64.1441C177.354 64.3348 176.751 64.5256 176.24 64.764V84.9838H176.193Z" fill="white"/>
<path d="M208.957 84.0854C208.399 84.4987 207.608 84.8661 206.585 85.0958C205.561 85.3713 204.352 85.5091 203.049 85.5091C201.561 85.5091 200.258 85.3254 199.142 84.958C198.025 84.5906 197.281 83.9935 196.863 83.1209C196.537 82.4779 196.118 81.5594 195.606 80.4112C195.141 79.263 194.63 77.9771 194.071 76.5534C193.513 75.1296 192.955 73.614 192.397 71.9607C191.839 70.3073 191.28 68.6999 190.769 67.1383C190.257 65.5309 189.792 64.0153 189.373 62.5457C188.954 61.076 188.582 59.7441 188.35 58.596C188.908 58.0448 189.606 57.5856 190.489 57.2181C191.373 56.8048 192.397 56.6211 193.467 56.6211C194.816 56.6211 195.932 56.8967 196.769 57.4478C197.653 57.9989 198.258 59.0552 198.723 60.5708L200.956 69.2969C201.375 70.9962 201.793 72.5577 202.166 73.9355C202.538 75.3133 202.817 76.4156 203.049 77.1504H203.329C204.073 74.3489 204.817 71.2258 205.655 67.8272C206.445 64.4287 207.19 61.0301 207.841 57.7693C208.492 57.4478 209.236 57.1722 210.074 56.9885C210.911 56.8048 211.702 56.7129 212.446 56.7129C213.795 56.7129 214.912 56.9885 215.842 57.5856C216.772 58.1367 217.238 59.1471 217.238 60.5249C217.238 61.1219 217.098 61.9945 216.819 63.1886C216.54 64.3368 216.168 65.6687 215.703 67.1383C215.237 68.608 214.726 70.1695 214.167 71.777C213.563 73.4303 212.958 74.9918 212.353 76.5534C211.748 78.1149 211.144 79.5845 210.539 80.9164C209.981 82.1105 209.423 83.2128 208.957 84.0854Z" fill="white"/>
<path d="M236.492 85.5084C234.25 85.5084 232.191 85.1803 230.269 84.571C228.347 83.9148 226.699 82.9774 225.28 81.7119C223.862 80.4464 222.763 78.806 221.94 76.8843C221.116 74.9627 220.704 72.666 220.704 70.0882C220.704 67.5104 221.116 65.3544 221.94 63.4796C222.763 61.6516 223.816 60.1518 225.143 58.9332C226.47 57.7615 227.98 56.8709 229.674 56.3085C231.367 55.7461 233.106 55.4648 234.891 55.4648C236.904 55.4648 238.735 55.7929 240.382 56.4022C242.03 57.0115 243.448 57.8552 244.638 58.9801C245.828 60.0581 246.743 61.3704 247.43 62.8703C248.07 64.3701 248.437 66.0105 248.437 67.7916C248.437 69.1039 248.07 70.1351 247.338 70.7913C246.606 71.4943 245.599 71.9161 244.318 72.1505L230.314 74.3065C230.726 75.572 231.596 76.5562 232.877 77.1655C234.158 77.8217 235.623 78.1029 237.316 78.1029C238.872 78.1029 240.336 77.9155 241.709 77.4936C243.082 77.0718 244.226 76.6031 245.096 76.0875C245.691 76.4625 246.194 77.0249 246.606 77.728C247.018 78.431 247.247 79.1809 247.247 79.9309C247.247 81.665 246.469 82.9774 244.867 83.8211C243.677 84.4772 242.304 84.9459 240.794 85.1803C239.192 85.4146 237.774 85.5084 236.492 85.5084ZM234.891 62.6828C233.975 62.6828 233.197 62.8234 232.557 63.1515C231.916 63.4796 231.367 63.8545 230.955 64.3232C230.543 64.7919 230.223 65.3544 230.04 65.9637C229.811 66.573 229.719 67.1823 229.674 67.7916L239.375 66.1512C239.284 65.3544 238.826 64.6044 238.14 63.8077C237.362 63.0577 236.264 62.6828 234.891 62.6828Z" fill="white"/>
</svg>
