<svg width="33" height="33" viewBox="0 0 33 33" fill="none" xmlns="http://www.w3.org/2000/svg">
<path d="M16.9961 0.509766C8.15943 0.509766 0.996094 7.6731 0.996094 16.5098C0.996094 25.3464 8.15943 32.5098 16.9961 32.5098C25.8328 32.5098 32.9961 25.3464 32.9961 16.5098C32.9961 7.6731 25.8328 0.509766 16.9961 0.509766ZM23.5044 13.6164C23.5111 13.7531 23.5128 13.8898 23.5128 14.0231C23.5128 18.1898 20.3444 22.9914 14.5478 22.9914C12.8349 22.9943 11.1577 22.5023 9.71776 21.5748C9.96276 21.6048 10.2144 21.6164 10.4694 21.6164C11.9461 21.6164 13.3044 21.1148 14.3828 20.2681C13.7256 20.2552 13.0889 20.0376 12.5613 19.6456C12.0337 19.2537 11.6415 18.7069 11.4394 18.0814C11.9114 18.1712 12.3975 18.1524 12.8611 18.0264C12.1478 17.8822 11.5064 17.4957 11.0456 16.9325C10.5848 16.3694 10.3329 15.6641 10.3328 14.9364V14.8981C10.7578 15.1331 11.2444 15.2764 11.7611 15.2931C11.0924 14.848 10.6191 14.1642 10.4378 13.3817C10.2566 12.5991 10.3812 11.7769 10.7861 11.0831C11.5777 12.0564 12.5649 12.8527 13.6837 13.4203C14.8026 13.9879 16.0281 14.3142 17.2811 14.3781C17.1218 13.7019 17.1904 12.9921 17.4761 12.3589C17.7619 11.7258 18.2488 11.2047 18.8612 10.8769C19.4736 10.549 20.1772 10.4326 20.8626 10.5459C21.548 10.6591 22.1767 10.9956 22.6511 11.5031C23.3564 11.3636 24.0327 11.1049 24.6511 10.7381C24.416 11.4683 23.9239 12.0884 23.2661 12.4831C23.8908 12.4079 24.5009 12.2399 25.0761 11.9848C24.6536 12.6179 24.1213 13.1705 23.5044 13.6164Z" fill="white"/>
</svg>
